<svg width="18" height="24" viewBox="0 0 18 24" fill="none" xmlns="http://www.w3.org/2000/svg">
<path d="M9.00032 0C16.1174 0 20.4099 7.974 16.5474 14.022L13.4485 18.876V21C13.4486 21.7428 13.1764 22.4592 12.6845 23.0106C12.1926 23.562 11.5159 23.9092 10.7855 23.985L10.483 24H7.5176L7.21512 23.985C6.48472 23.9092 5.80808 23.562 5.31615 23.0106C4.82422 22.4592 4.552 21.7428 4.55215 21V18.876L1.45327 14.022C-2.4107 7.9725 1.88326 0 9.00032 0ZM6.77623 21C6.77623 21.1989 6.85434 21.3897 6.99337 21.5303C7.13241 21.671 7.32097 21.75 7.5176 21.75H10.483C10.6797 21.75 10.8682 21.671 11.0073 21.5303C11.1463 21.3897 11.2244 21.1989 11.2244 21V20.25H6.77623V21ZM9.00032 2.25C3.64473 2.25 0.415363 8.25 3.3215 12.7995L6.63982 18H11.3608L14.6791 12.7995C17.5853 8.25 14.3559 2.25 9.00032 2.25ZM8.16258 5.85C8.22432 5.67524 8.33796 5.52405 8.48793 5.41716C8.63789 5.31027 8.81686 5.25289 9.00032 5.25289C9.18377 5.25289 9.36274 5.31027 9.51271 5.41716C9.66268 5.52405 9.77631 5.67524 9.83805 5.85L10.486 7.6995C10.5303 7.82575 10.6018 7.94042 10.6954 8.03514C10.7891 8.12985 10.9024 8.20224 11.0272 8.247L12.8569 8.904C13.0293 8.96639 13.1784 9.08117 13.2838 9.23261C13.3893 9.38405 13.4459 9.56476 13.4459 9.75C13.4459 9.93524 13.3893 10.1159 13.2838 10.2674C13.1784 10.4188 13.0293 10.5336 12.8569 10.596L11.0272 11.253C10.9024 11.2978 10.7891 11.3701 10.6954 11.4649C10.6018 11.5596 10.5303 11.6742 10.486 11.8005L9.83805 13.6515C9.77631 13.8263 9.66268 13.9774 9.51271 14.0843C9.36274 14.1912 9.18377 14.2486 9.00032 14.2486C8.81686 14.2486 8.63789 14.1912 8.48793 14.0843C8.33796 13.9774 8.22432 13.8263 8.16258 13.6515L7.51463 11.8005C7.47038 11.6742 7.39883 11.5596 7.30521 11.4649C7.21158 11.3701 7.09823 11.2978 6.97344 11.253L5.14524 10.596C4.97284 10.5336 4.82371 10.4188 4.71827 10.2674C4.61283 10.1159 4.55624 9.93524 4.55624 9.75C4.55624 9.56476 4.61283 9.38405 4.71827 9.23261C4.82371 9.08117 4.97284 8.96639 5.14524 8.904L6.97344 8.247C7.09823 8.20224 7.21158 8.12985 7.30521 8.03514C7.39883 7.94042 7.47038 7.82575 7.51463 7.6995L8.16258 5.85Z" fill="#3B82F6"/>
</svg>
