<svg width="15" height="12" viewBox="0 0 15 12" fill="none" xmlns="http://www.w3.org/2000/svg">
<path d="M13.5 0.5C13.7787 0.5 14.005 0.593852 14.2061 0.794922C14.4069 0.995856 14.5003 1.22143 14.5 1.49902V10.5C14.5 10.7788 14.4065 11.0051 14.2061 11.2061C14.006 11.4065 13.78 11.5003 13.501 11.5H1.5C1.22109 11.5 0.995283 11.4064 0.794922 11.2061C0.619489 11.0306 0.525752 10.8353 0.504883 10.6016L0.5 10.499V1.5C0.5 1.2214 0.593277 0.995331 0.793945 0.794922C0.97003 0.619137 1.1658 0.525793 1.39844 0.504883L1.50098 0.5H13.5ZM12.8438 1.49219C12.6312 1.49826 12.4362 1.56813 12.2646 1.67285L12.2598 1.67676L7.5 4.65918L2.74023 1.67676L2.73535 1.67383L2.60156 1.60156C2.46279 1.53706 2.31129 1.4974 2.14941 1.49512C1.93176 1.49213 1.73112 1.55744 1.55566 1.66602C1.20569 1.88261 1.00006 2.22237 1 2.64355C1 2.83617 1.03915 3.02911 1.13379 3.20703C1.2273 3.38281 1.36638 3.5169 1.53516 3.61035V3.61133L6.84082 6.92969V6.93066L6.84863 6.93457C6.9493 6.99497 7.05737 7.04198 7.1709 7.07324C7.27643 7.10229 7.3868 7.11866 7.5 7.11816V7.11914L7.50098 7.11816L7.50391 7.11914L7.50293 7.11816C7.6152 7.11787 7.72488 7.10123 7.83008 7.07227C7.94278 7.04122 8.05016 6.99536 8.15039 6.93555L8.15918 6.92969L13.4648 3.61133C13.6304 3.50785 13.7705 3.36836 13.8662 3.18945C13.9575 3.01866 14 2.83325 14 2.64355C13.9999 2.21953 13.8024 1.86674 13.4346 1.65039C13.2579 1.5465 13.0585 1.4861 12.8438 1.49219Z" fill="#999999" stroke="black"/>
</svg>
