<svg width="15" height="16" viewBox="0 0 15 16" fill="none" xmlns="http://www.w3.org/2000/svg">
<path d="M11.3514 4.71771C11.3514 3.50505 11.0838 2.33752 10.4538 1.45634C9.80513 0.548075 8.80784 0 7.5 0C6.19216 0 5.19568 0.548075 4.54622 1.45634C3.91622 2.33752 3.64865 3.50505 3.64865 4.71771V5.7433H3.17838C2.74459 5.7433 2.38378 5.7433 2.08784 5.76791C1.77973 5.79334 1.49108 5.84832 1.21784 5.98944C0.7982 6.20577 0.45703 6.551 0.243243 6.97564C0.103784 7.25214 0.0486486 7.54505 0.0243243 7.85683C-2.26538e-08 8.15548 0 8.52141 0 8.95954V12.7829C0 13.2219 -2.26538e-08 13.587 0.0243243 13.8865C0.0486486 14.1982 0.103784 14.4912 0.243243 14.7677C0.45703 15.1923 0.7982 15.5375 1.21784 15.7539C1.49108 15.895 1.77973 15.95 2.08784 15.9754C2.38378 16 2.74459 16 3.17838 16H11.8216C12.2554 16 12.6162 16 12.9122 15.9754C13.2203 15.95 13.5089 15.895 13.7822 15.7539C14.2018 15.5375 14.543 15.1923 14.7568 14.7677C14.8962 14.4912 14.9514 14.1982 14.9757 13.8865C15 13.5878 15 13.2219 15 12.7838V8.95954C15 8.52141 15 8.15548 14.9757 7.85683C14.9514 7.54505 14.8962 7.25214 14.7568 6.97564C14.5434 6.55125 14.2028 6.20605 13.7838 5.98944C13.5097 5.84832 13.2211 5.79334 12.913 5.76791C12.617 5.7433 12.2562 5.7433 11.8224 5.7433H11.3522L11.3514 4.71771ZM4.86486 4.71771C4.86486 3.66504 5.1 2.7814 5.53135 2.17753C5.94486 1.60074 6.56919 1.23071 7.5 1.23071C8.43081 1.23071 9.05595 1.59992 9.46865 2.17753C9.9 2.7814 10.1351 3.66504 10.1351 4.71771V5.7433H4.86486V4.71771ZM8.10811 10.6661V11.0764C8.10811 11.2396 8.04404 11.3961 7.93 11.5115C7.81595 11.6269 7.66128 11.6917 7.5 11.6917C7.33872 11.6917 7.18405 11.6269 7.07 11.5115C6.95596 11.3961 6.89189 11.2396 6.89189 11.0764V10.6661C6.89189 10.5029 6.95596 10.3464 7.07 10.231C7.18405 10.1156 7.33872 10.0508 7.5 10.0508C7.66128 10.0508 7.81595 10.1156 7.93 10.231C8.04404 10.3464 8.10811 10.5029 8.10811 10.6661ZM10.7432 10.0508C10.9045 10.0508 11.0592 10.1156 11.1732 10.231C11.2873 10.3464 11.3514 10.5029 11.3514 10.6661V11.0764C11.3514 11.2396 11.2873 11.3961 11.1732 11.5115C11.0592 11.6269 10.9045 11.6917 10.7432 11.6917C10.582 11.6917 10.4273 11.6269 10.3132 11.5115C10.1992 11.3961 10.1351 11.2396 10.1351 11.0764V10.6661C10.1351 10.5029 10.1992 10.3464 10.3132 10.231C10.4273 10.1156 10.582 10.0508 10.7432 10.0508ZM4.86486 10.6661V11.0764C4.86486 11.2396 4.8008 11.3961 4.68675 11.5115C4.57271 11.6269 4.41804 11.6917 4.25676 11.6917C4.09548 11.6917 3.9408 11.6269 3.82676 11.5115C3.71272 11.3961 3.64865 11.2396 3.64865 11.0764V10.6661C3.64865 10.5029 3.71272 10.3464 3.82676 10.231C3.9408 10.1156 4.09548 10.0508 4.25676 10.0508C4.41804 10.0508 4.57271 10.1156 4.68675 10.231C4.8008 10.3464 4.86486 10.5029 4.86486 10.6661Z" fill="#999999"/>
</svg>
